# xmcd
#
# Track frame offsets:
#	150
#	20367
#	55727
#	83057
#	114717
#	141860
#
# Disc length: 2224 seconds
# Revision: 0
# Processed by: cddbd v1.5.2PL0 Copyright (c) Steve Scherf et al.
# Submitted via: dBpowerAMP V12.0
#
DISCID=4708ae06
DTITLE=Legacy Of Sound starring Lori Perry - Boy Don't Miss The Train
DYEAR=1996
DGENRE=House
TTITLE0=Boy Don't Miss The Train [Album Version]
TTITLE1=Boy Don't Miss The Train [Hyperballistic Mix]
TTITLE2=Boy Don't Miss The Train [Bar Rhumba Mix]
TTITLE3=Boy Don't Miss The Train [Pierre J's Anthem]
TTITLE4=Boy Don't Miss The Train [V.I.P. Vocal Club Mix]
TTITLE5=Boy Don't Miss The Train [Atmospheric Mix]
EXTD=
EXTT0=
EXTT1=
EXTT2=
EXTT3=
EXTT4=
EXTT5=
PLAYORDER=
